<svg xmlns="http://www.w3.org/2000/svg" width="15.3" height="15.4" viewBox="0 0 15.3 15.4"><defs><style>.a{fill:#fff;}</style></defs><g transform="translate(-12 -12.6)"><path class="a" d="M25.1,18.6a.6.6,0,0,1-.4-.1l-3.2-3.2c-.1-.1-.1-.2-.1-.4s.1-.3.1-.4l1.3-1.3a1.933,1.933,0,0,1,2.8,0l1.1,1.1a1.933,1.933,0,0,1,0,2.8l-1.3,1.3C25.4,18.6,25.2,18.6,25.1,18.6Zm-2.5-3.7,2.5,2.5,1-1a.967.967,0,0,0,0-1.4L25,13.9a.967.967,0,0,0-1.4,0Z"/><path class="a" d="M12.5,28c-.1,0-.3-.1-.4-.1a.9.9,0,0,1-.1-.5l.6-3.8c0-.1.1-.2.1-.3l8.8-8.8a.483.483,0,0,1,.7,0l3.2,3.2c.1.1.1.2.1.4s-.1.3-.1.4l-8.8,8.8a.367.367,0,0,1-.3.1l-3.8.6Zm1.1-4.1-.5,3,3-.5,8.3-8.3-2.5-2.5Z"/><path class="a" d="M17.2,26.5a.6.6,0,0,1-.4-.1l-3.2-3.2a.495.495,0,1,1,.7-.7l3.2,3.2a.483.483,0,0,1,0,.7A.438.438,0,0,1,17.2,26.5Z"/></g></svg>