<svg xmlns="http://www.w3.org/2000/svg" viewBox="0 0 15.831 18.888"><g transform="translate(0.5 0.5)"><g transform="translate(0 0)"><g transform="translate(2.83)"><path d="M20.729,21.789A4.833,4.833,0,0,1,16.2,16.695,4.833,4.833,0,0,1,20.729,11.6a4.833,4.833,0,0,1,4.529,5.095A4.833,4.833,0,0,1,20.729,21.789Zm0-9.057a3.7,3.7,0,0,0-3.4,3.963,3.7,3.7,0,0,0,3.4,3.963,3.7,3.7,0,0,0,3.4-3.963A3.7,3.7,0,0,0,20.729,12.732Z" transform="translate(-16.2 -11.6)"/></g><g transform="translate(8.831 8.491)"><path d="M26.821,28.5a.535.535,0,0,1-.566-.566V24.082a3.818,3.818,0,0,0-3.849-3.849h-.34a.566.566,0,1,1,0-1.132h.453A5.026,5.026,0,0,1,27.5,24.082v3.849A.718.718,0,0,1,26.821,28.5Z" transform="translate(-21.5 -19.1)"/></g><g transform="translate(0 8.491)"><path d="M14.266,28.5a.535.535,0,0,1-.566-.566V24.082A5.026,5.026,0,0,1,18.682,19.1h.453a.566.566,0,1,1,0,1.132h-.453a3.818,3.818,0,0,0-3.849,3.849v3.849A.535.535,0,0,1,14.266,28.5Z" transform="translate(-13.7 -19.1)"/></g></g></g></svg>
